<svg width="98" height="98" viewBox="0 0 98 98" fill="none" xmlns="http://www.w3.org/2000/svg">
<rect width="98" height="98" rx="49" fill="url(#paint0_linear_252_377)" fill-opacity="0.05"/>
<rect x="12" y="12" width="74" height="74" rx="37" fill="url(#paint1_linear_252_377)" fill-opacity="0.1"/>
<rect x="12.5" y="12.5" width="73" height="73" rx="36.5" stroke="url(#paint2_linear_252_377)" stroke-opacity="0.2"/>
<path d="M41.9167 47.584H39.0834V57.5007H41.9167V47.584ZM50.4167 47.584H47.5834V57.5007H50.4167V47.584ZM62.4584 60.334H35.5417V63.1673H62.4584V60.334ZM58.9167 47.584H56.0834V57.5007H58.9167V47.584ZM49 38.0357L56.3809 41.9173H41.6192L49 38.0357ZM49 34.834L35.5417 41.9173V44.7507H62.4584V41.9173L49 34.834Z" fill="#CAFF33"/>
<defs>
<linearGradient id="paint0_linear_252_377" x1="49" y1="0" x2="49" y2="98" gradientUnits="userSpaceOnUse">
<stop stop-color="#CAFF33"/>
<stop offset="1" stop-color="#CAFF33" stop-opacity="0"/>
</linearGradient>
<linearGradient id="paint1_linear_252_377" x1="49" y1="-37" x2="49" y2="203" gradientUnits="userSpaceOnUse">
<stop stop-color="#CAFF33"/>
<stop offset="0.467671" stop-color="#CAFF33" stop-opacity="0"/>
</linearGradient>
<linearGradient id="paint2_linear_252_377" x1="49" y1="-116.5" x2="49" y2="153" gradientUnits="userSpaceOnUse">
<stop stop-color="#CAFF33"/>
<stop offset="0.716291" stop-color="#CAFF33" stop-opacity="0"/>
</linearGradient>
</defs>
</svg>
