<svg width="98" height="98" viewBox="0 0 98 98" fill="none" xmlns="http://www.w3.org/2000/svg">
<rect width="98" height="98" rx="49" fill="url(#paint0_linear_301_728)" fill-opacity="0.05"/>
<rect x="12" y="12" width="74" height="74" rx="37" fill="url(#paint1_linear_301_728)" fill-opacity="0.1"/>
<rect x="12.5" y="12.5" width="73" height="73" rx="36.5" stroke="url(#paint2_linear_301_728)" stroke-opacity="0.2"/>
<g clip-path="url(#clip0_301_728)">
<path d="M48.9987 34.834C41.1787 34.834 34.832 41.1807 34.832 49.0007C34.832 56.8207 41.1787 63.1673 48.9987 63.1673C56.8187 63.1673 63.1654 56.8207 63.1654 49.0007C63.1654 41.1807 56.8187 34.834 48.9987 34.834ZM50.4154 56.084H47.582V53.2507H50.4154V56.084ZM50.4154 50.4173H47.582V41.9173H50.4154V50.4173Z" fill="#CAFF33"/>
</g>
<defs>
<linearGradient id="paint0_linear_301_728" x1="49" y1="0" x2="49" y2="98" gradientUnits="userSpaceOnUse">
<stop stop-color="#CAFF33"/>
<stop offset="1" stop-color="#CAFF33" stop-opacity="0"/>
</linearGradient>
<linearGradient id="paint1_linear_301_728" x1="49" y1="-37" x2="49" y2="203" gradientUnits="userSpaceOnUse">
<stop stop-color="#CAFF33"/>
<stop offset="0.467671" stop-color="#CAFF33" stop-opacity="0"/>
</linearGradient>
<linearGradient id="paint2_linear_301_728" x1="49" y1="-116.5" x2="49" y2="153" gradientUnits="userSpaceOnUse">
<stop stop-color="#CAFF33"/>
<stop offset="0.716291" stop-color="#CAFF33" stop-opacity="0"/>
</linearGradient>
<clipPath id="clip0_301_728">
<rect width="34" height="34" fill="white" transform="translate(32 32)"/>
</clipPath>
</defs>
</svg>
