<svg width="98" height="98" viewBox="0 0 98 98" fill="none" xmlns="http://www.w3.org/2000/svg">
<rect width="98" height="98" rx="49" fill="url(#paint0_linear_302_950)" fill-opacity="0.05"/>
<rect x="12" y="12" width="74" height="74" rx="37" fill="url(#paint1_linear_302_950)" fill-opacity="0.1"/>
<rect x="12.5" y="12.5" width="73" height="73" rx="36.5" stroke="url(#paint2_linear_302_950)" stroke-opacity="0.2"/>
<g clip-path="url(#clip0_302_950)">
<path d="M48.9999 34.834C41.1799 34.834 34.8333 41.1807 34.8333 49.0007C34.8333 56.8207 41.1799 63.1673 48.9999 63.1673C56.8199 63.1673 63.1666 56.8207 63.1666 49.0007C63.1666 41.1807 56.8199 34.834 48.9999 34.834ZM37.6666 49.0007C37.6666 42.739 42.7383 37.6673 48.9999 37.6673C51.6208 37.6673 54.0291 38.5598 55.9416 40.0615L40.0608 55.9423C38.5591 54.0298 37.6666 51.6215 37.6666 49.0007ZM48.9999 60.334C46.3791 60.334 43.9708 59.4415 42.0583 57.9398L57.9391 42.059C59.4408 43.9715 60.3333 46.3798 60.3333 49.0007C60.3333 55.2623 55.2616 60.334 48.9999 60.334Z" fill="#CAFF33"/>
</g>
<defs>
<linearGradient id="paint0_linear_302_950" x1="49" y1="0" x2="49" y2="98" gradientUnits="userSpaceOnUse">
<stop stop-color="#CAFF33"/>
<stop offset="1" stop-color="#CAFF33" stop-opacity="0"/>
</linearGradient>
<linearGradient id="paint1_linear_302_950" x1="49" y1="-37" x2="49" y2="203" gradientUnits="userSpaceOnUse">
<stop stop-color="#CAFF33"/>
<stop offset="0.467671" stop-color="#CAFF33" stop-opacity="0"/>
</linearGradient>
<linearGradient id="paint2_linear_302_950" x1="49" y1="-116.5" x2="49" y2="153" gradientUnits="userSpaceOnUse">
<stop stop-color="#CAFF33"/>
<stop offset="0.716291" stop-color="#CAFF33" stop-opacity="0"/>
</linearGradient>
<clipPath id="clip0_302_950">
<rect width="34" height="34" fill="white" transform="translate(32 32)"/>
</clipPath>
</defs>
</svg>
