<svg width="98" height="98" viewBox="0 0 98 98" fill="none" xmlns="http://www.w3.org/2000/svg">
<rect width="98" height="98" rx="49" fill="url(#paint0_linear_280_433)" fill-opacity="0.05"/>
<rect x="12" y="12" width="74" height="74" rx="37" fill="url(#paint1_linear_280_433)" fill-opacity="0.1"/>
<rect x="12.5" y="12.5" width="73" height="73" rx="36.5" stroke="url(#paint2_linear_280_433)" stroke-opacity="0.2"/>
<g clip-path="url(#clip0_280_433)">
<path d="M49 33.5938C44.6012 33.5938 41.0312 37.1637 41.0312 41.5625C41.0312 45.9612 44.6012 49.5312 49 49.5312C53.3987 49.5312 56.9687 45.9612 56.9687 41.5625C56.9687 37.1637 53.3987 33.5938 49 33.5938ZM49 47.9375C45.4858 47.9375 42.625 45.0767 42.625 41.5625C42.625 38.0483 45.4858 35.1875 49 35.1875C52.5142 35.1875 55.375 38.0483 55.375 41.5625C55.375 45.0767 52.5142 47.9375 49 47.9375ZM49.247 40.8772C47.8366 40.5186 47.3823 40.1281 47.3823 39.5464C47.3823 38.877 48.0119 38.4069 49.0558 38.4069C50.1555 38.4069 50.5698 38.9328 50.6017 39.7137H51.9644C51.9245 38.6459 51.2711 37.6658 49.9802 37.347V35.9844H48.1234V37.3311C46.9202 37.5861 45.9559 38.367 45.9559 39.5703C45.9559 40.9967 47.1433 41.7139 48.8725 42.1283C50.4264 42.4948 50.7372 43.0447 50.7372 43.6184C50.7372 44.0408 50.4264 44.7261 49.0637 44.7261C47.7887 44.7261 47.2867 44.1523 47.215 43.4192H45.8444C45.9241 44.7739 46.9281 45.5389 48.1234 45.7859V47.1406H49.9881V45.8098C51.1994 45.5787 52.1556 44.8855 52.1636 43.6025C52.1556 41.8494 50.6495 41.2437 49.247 40.8772Z" fill="#CAFF33"/>
<path d="M49 49V55.375" stroke="#CAFF33" stroke-linecap="round"/>
<path d="M36.7812 51.6562H61.2188" stroke="#CAFF33" stroke-linecap="round"/>
<path d="M36.7812 51.6562V54.8438" stroke="#CAFF33" stroke-linecap="round"/>
<path d="M61.2188 51.6562V54.8438" stroke="#CAFF33" stroke-linecap="round"/>
<path d="M36.7812 56.4375L39.0816 54.0469H34.4809L36.7812 56.4375Z" fill="#CAFF33"/>
<path d="M61.2188 56.4375L63.5191 54.0469H58.9184L61.2188 56.4375Z" fill="#CAFF33"/>
<path d="M49 56.4375L51.7605 54.0469H46.2395L49 56.4375Z" fill="#CAFF33"/>
<circle cx="36.25" cy="61.75" r="4.25" fill="#CAFF33"/>
<circle cx="49" cy="61.75" r="4.25" fill="#CAFF33"/>
<circle cx="61.75" cy="61.75" r="4.25" fill="#CAFF33"/>
</g>
<defs>
<linearGradient id="paint0_linear_280_433" x1="49" y1="0" x2="49" y2="98" gradientUnits="userSpaceOnUse">
<stop stop-color="#CAFF33"/>
<stop offset="1" stop-color="#CAFF33" stop-opacity="0"/>
</linearGradient>
<linearGradient id="paint1_linear_280_433" x1="49" y1="-37" x2="49" y2="203" gradientUnits="userSpaceOnUse">
<stop stop-color="#CAFF33"/>
<stop offset="0.467671" stop-color="#CAFF33" stop-opacity="0"/>
</linearGradient>
<linearGradient id="paint2_linear_280_433" x1="49" y1="-116.5" x2="49" y2="153" gradientUnits="userSpaceOnUse">
<stop stop-color="#CAFF33"/>
<stop offset="0.716291" stop-color="#CAFF33" stop-opacity="0"/>
</linearGradient>
<clipPath id="clip0_280_433">
<rect width="34" height="34" fill="white" transform="translate(32 32)"/>
</clipPath>
</defs>
</svg>
